<svg version="1.1" id="Layer_1" xmlns="http://www.w3.org/2000/svg" xmlns:xlink="http://www.w3.org/1999/xlink" x="0px" y="0px"
	 width="100%" viewBox="0 0 1470 543" enable-background="new 0 0 1470 543" xml:space="preserve">
<path fill="#FFFFFF" opacity="1.000000" stroke="none" 
	d="
M1471.000000,333.000000 
	C1471.000000,403.296631 1471.000000,473.593262 1471.000000,544.000000 
	C1271.640869,544.000000 1072.281616,544.000000 872.642212,543.612305 
	C878.664673,542.476990 885.174927,542.490784 891.231262,540.839478 
	C909.571350,535.839233 926.889709,528.662476 942.524109,517.320984 
	C963.451416,502.139832 979.826843,483.190552 991.721802,460.486206 
	C1001.593079,441.644745 1006.571655,421.022644 1006.761475,399.949341 
	C1007.190063,352.378479 1006.378418,304.795685 1005.974792,257.218536 
	C1005.842468,241.621643 1001.460876,226.905151 995.301453,212.792389 
	C986.039551,191.571152 972.826294,173.356033 954.492371,158.711319 
	C942.166870,148.866028 929.612305,139.878891 914.900757,133.895401 
	C898.503479,127.226318 881.483093,123.633438 863.931091,123.167793 
	C853.956482,122.903175 843.902039,124.004669 833.946411,125.075706 
	C820.604370,126.511063 807.835571,130.400055 795.702393,136.085175 
	C773.562012,146.459290 754.789001,160.985703 739.784058,180.556290 
	C721.860718,203.933136 711.557129,230.214462 709.168335,259.336761 
	C707.445190,280.342712 709.848389,301.173187 716.651123,321.297180 
	C723.089722,340.343781 733.342773,357.246490 746.729553,372.099548 
	C762.051880,389.100067 780.198181,402.326294 801.477966,411.198120 
	C816.477905,417.451813 832.123840,420.157288 848.188904,420.974304 
	C863.162476,421.735809 877.991821,420.322205 892.579224,416.939331 
	C907.671631,413.439362 922.214233,408.361908 935.337769,399.911987 
	C941.786194,395.760040 947.988098,391.225250 955.469666,386.056702 
	C954.899963,392.185120 954.260498,397.020966 954.036011,401.876038 
	C953.450684,414.532257 949.952698,426.497528 944.524109,437.735809 
	C938.382385,450.450531 929.666687,461.277893 918.427734,470.164062 
	C902.178894,483.011230 883.935913,490.053497 863.289612,490.999756 
	C843.524109,491.905670 825.048279,487.330414 807.996094,477.417694 
	C799.375488,472.406403 791.559875,466.377075 785.551331,458.093994 
	C781.532288,452.553650 776.873291,447.387970 771.964233,442.605225 
	C765.561646,436.367554 756.814453,434.031586 748.860657,436.336884 
	C729.709045,441.887665 723.065430,459.851013 733.703247,477.062744 
	C743.125061,492.306915 755.678284,505.181030 770.215454,515.559448 
	C786.519348,527.199158 804.436829,535.962524 824.327271,540.004395 
	C830.884705,541.336914 837.442444,542.668152 844.000000,544.000000 
	C563.120178,544.000000 282.240326,544.000000 1.000000,544.000000 
	C1.000000,495.974762 1.000000,447.948639 1.351093,399.588470 
	C4.451161,411.159119 14.707360,417.532593 24.074547,418.773499 
	C37.640816,420.570587 47.114532,416.077972 53.036346,404.513031 
	C55.657349,399.394348 57.791374,394.020233 60.030201,388.713074 
	C67.393677,371.257751 74.824066,353.829102 82.000839,336.296936 
	C89.160545,318.806458 95.926743,301.154907 103.081932,283.662537 
	C111.579689,262.887939 120.408630,242.248825 128.909134,221.475327 
	C137.519653,200.432953 145.899277,179.296112 154.389755,158.204559 
	C160.678940,142.581345 166.955856,126.953072 173.295319,111.350243 
	C175.787018,105.217575 178.434006,99.147995 181.250641,92.480743 
	C187.070496,106.698341 192.595657,120.013008 197.977753,133.385254 
	C206.963135,155.710205 215.834686,178.080963 224.796417,200.415466 
	C232.163803,218.776535 239.610474,237.105774 246.989563,255.462173 
	C256.654907,279.505859 266.311371,303.553223 275.927734,327.616547 
	C282.992462,345.294922 289.965820,363.009766 297.021484,380.691772 
	C300.362091,389.063568 302.836121,397.969452 307.389832,405.630554 
	C317.599854,422.807770 342.556091,424.384399 355.446625,406.877960 
	C359.333282,401.599579 361.689911,394.925537 359.562561,388.370728 
	C355.414642,375.589935 350.740509,362.958099 345.751129,350.477722 
	C339.446350,334.707123 332.597137,319.154449 326.005402,303.498260 
	C319.470306,287.976532 312.975616,272.437775 306.440247,256.916138 
	C300.646820,243.156647 294.777222,229.429077 289.022217,215.653595 
	C281.969666,198.772278 275.016998,181.849274 267.992126,164.956345 
	C261.340881,148.961868 254.668991,132.975937 247.974976,116.999298 
	C241.669434,101.949799 235.306366,86.924416 228.999557,71.875450 
	C222.312286,55.918705 215.936417,39.823750 208.876587,24.034159 
	C205.445190,16.359703 202.771225,7.683152 193.680099,4.175383 
	C190.806183,3.066494 187.894440,2.055691 185.000000,1.000000 
	C613.554321,1.000000 1042.108643,1.000000 1471.000000,1.000000 
	C1471.000000,109.692261 1471.000000,218.384872 1470.609985,327.371643 
	C1469.580811,312.236969 1464.449707,298.444763 1454.265747,286.870544 
	C1441.795288,272.697723 1425.598511,264.304688 1408.085693,257.895599 
	C1384.079834,249.110291 1358.815308,245.424408 1334.245483,238.953690 
	C1321.392578,235.568756 1308.989136,231.169693 1300.448608,219.978851 
	C1296.418457,214.697968 1294.546753,208.448380 1295.220215,202.174042 
	C1296.320679,191.923767 1302.352661,184.276672 1311.695435,180.175751 
	C1331.017578,171.694412 1351.171997,170.250137 1371.935669,173.877777 
	C1385.751587,176.291580 1397.839355,182.135941 1409.164185,190.048965 
	C1414.984985,194.116196 1420.541992,198.847900 1426.908936,201.778702 
	C1436.075928,205.998367 1445.779907,207.122726 1455.019653,201.018585 
	C1462.164795,196.298218 1467.477539,185.236938 1463.580566,175.868317 
	C1460.217896,167.784195 1454.055054,162.370880 1448.090088,156.542145 
	C1435.871338,144.602310 1420.975220,137.309311 1405.080933,132.059967 
	C1386.129150,125.800880 1366.579834,123.066292 1346.597412,125.045853 
	C1335.901367,126.105461 1325.191895,127.285324 1314.597168,129.058899 
	C1292.809814,132.706085 1273.814697,141.983337 1258.921143,158.645493 
	C1252.179443,166.187653 1247.644897,175.012405 1244.930420,184.819305 
	C1242.203491,194.670853 1241.490967,204.456741 1242.832642,214.700592 
	C1244.497803,227.413681 1249.155518,238.825165 1257.130005,248.390961 
	C1269.335327,263.031921 1284.926270,273.549622 1303.271851,278.896606 
	C1321.647705,284.252350 1340.382446,288.379456 1358.971802,292.997681 
	C1374.599731,296.880188 1390.053223,301.283325 1403.178467,311.118805 
	C1411.795044,317.575836 1417.591309,326.037445 1416.887939,337.269287 
	C1416.241821,347.587311 1410.614258,355.314697 1402.068726,360.928192 
	C1394.310791,366.024353 1385.770752,368.514923 1376.609009,370.305695 
	C1362.592896,373.045319 1348.536377,373.087891 1334.901123,370.631958 
	C1313.879028,366.845551 1294.169678,359.402893 1278.632690,343.356842 
	C1270.911865,335.383209 1260.907837,333.359192 1250.169067,337.034302 
	C1235.559692,342.034027 1227.457031,355.077759 1230.024048,369.784882 
	C1231.409058,377.720123 1237.977417,382.235718 1243.506104,386.692596 
	C1254.906494,395.882935 1267.777832,402.847961 1281.517212,408.193329 
	C1301.160278,415.835510 1321.547607,419.940094 1342.494995,420.859619 
	C1353.200195,421.329559 1364.008911,420.787842 1374.698364,419.864105 
	C1384.202393,419.042786 1393.879639,418.008118 1402.990723,415.374146 
	C1416.735718,411.400482 1429.589111,405.258301 1440.796631,395.845856 
	C1459.198853,380.391022 1470.122925,361.490875 1470.043457,336.964661 
	C1470.039185,335.644135 1470.666626,334.321594 1471.000000,333.000000 
M501.635529,127.004150 
	C497.820984,127.750450 493.912292,128.182831 490.207336,129.294373 
	C467.380157,136.142776 447.105621,147.666504 429.702728,163.887589 
	C414.371552,178.177673 402.196991,194.793045 393.858246,214.249863 
	C386.674133,231.012543 383.215881,248.492920 382.114624,266.497833 
	C381.725342,272.862366 382.195038,279.376038 383.104462,285.702026 
	C384.685272,296.698364 386.194763,307.791748 389.028625,318.501953 
	C393.933868,337.040894 403.661987,353.110260 416.088593,367.737885 
	C429.406921,383.415253 444.844940,396.302643 462.961334,405.988525 
	C482.922485,416.660767 504.601379,420.962921 526.886414,421.689240 
	C537.589722,422.038086 548.469421,420.570099 559.092957,418.841492 
	C571.777344,416.777527 584.326721,413.496735 595.566589,406.973694 
	C604.998779,401.499756 614.332520,395.727234 623.089355,389.248291 
	C636.656372,379.210449 638.385376,359.461395 624.795837,348.186951 
	C615.424561,340.412140 601.040833,339.389679 590.024414,348.318817 
	C573.445496,361.756531 554.212585,368.706360 532.825867,368.887482 
	C526.185547,368.943695 519.524231,367.748657 512.889526,366.979431 
	C502.659088,365.793335 493.402313,361.720337 484.456635,356.914032 
	C473.460907,351.006348 463.844025,343.273865 456.125000,333.477631 
	C451.456085,327.552338 446.669708,321.434296 443.501678,314.669678 
	C436.354584,299.408539 433.918518,283.195374 434.804413,266.198273 
	C435.556366,251.770325 439.682068,238.452225 446.192169,226.048843 
	C455.275970,208.742065 468.756195,195.077637 486.400696,186.358643 
	C507.634491,175.866043 530.097290,173.255356 553.141479,179.154007 
	C565.191162,182.238373 577.013733,186.519531 586.412659,195.075363 
	C594.809631,202.719177 603.448608,210.389465 610.324829,219.322769 
	C616.254883,227.026886 620.736328,236.146942 622.676880,247.000183 
	C620.490906,247.000183 618.750977,247.000183 617.010986,247.000183 
	C588.681274,247.000183 560.351624,247.000366 532.021912,247.000107 
	C517.361084,246.999969 508.793457,253.028152 505.568237,267.038025 
	C501.593658,284.302612 512.628113,298.618500 529.729614,298.832855 
	C570.884521,299.348846 612.055603,299.385925 653.209412,298.827240 
	C672.081604,298.570984 679.915527,284.782745 679.836975,269.537231 
	C679.798035,261.976990 678.000610,254.426208 677.004211,246.870422 
	C674.669250,229.164352 668.094299,212.902527 659.065308,197.741745 
	C648.941772,180.743149 635.732788,166.304001 619.873108,154.345474 
	C607.746399,145.201736 594.876465,137.533279 580.372375,132.679565 
	C569.734924,129.119797 559.065735,126.080048 547.737915,125.891609 
	C536.482666,125.704391 525.230469,125.148087 513.976929,125.146286 
	C510.159149,125.145668 506.341187,126.341660 501.635529,127.004150 
M1101.602295,413.049316 
	C1109.690063,418.304474 1118.179199,420.210632 1127.935791,418.164368 
	C1138.152710,416.021606 1147.938843,405.925232 1147.950928,395.222321 
	C1148.041504,314.406036 1148.033447,233.589554 1147.955811,152.773224 
	C1147.946899,143.437317 1144.432007,135.176315 1136.358765,130.291901 
	C1126.084229,124.075745 1115.043579,123.825783 1104.447144,129.979950 
	C1095.205322,135.347397 1091.965820,144.131287 1092.021973,154.314911 
	C1092.305908,205.728668 1092.725342,257.141724 1092.976196,308.555603 
	C1093.110352,336.049164 1093.198853,363.546265 1092.881714,391.036835 
	C1092.783569,399.542206 1095.311890,406.541351 1101.602295,413.049316 
M1095.511597,69.007187 
	C1109.041748,82.759964 1131.017700,82.945282 1145.498413,68.727226 
	C1158.057495,56.395966 1160.745239,31.308943 1142.660767,16.145033 
	C1130.383911,5.850972 1108.361450,4.303849 1093.592651,19.743080 
	C1082.077881,31.780626 1081.325317,57.037262 1095.511597,69.007187 
z"/>
<path fill="#373435" opacity="1.000000" stroke="none" 
	d="
M844.468628,544.000000 
	C837.442444,542.668152 830.884705,541.336914 824.327271,540.004395 
	C804.436829,535.962524 786.519348,527.199158 770.215454,515.559448 
	C755.678284,505.181030 743.125061,492.306915 733.703247,477.062744 
	C723.065430,459.851013 729.709045,441.887665 748.860657,436.336884 
	C756.814453,434.031586 765.561646,436.367554 771.964233,442.605225 
	C776.873291,447.387970 781.532288,452.553650 785.551331,458.093994 
	C791.559875,466.377075 799.375488,472.406403 807.996094,477.417694 
	C825.048279,487.330414 843.524109,491.905670 863.289612,490.999756 
	C883.935913,490.053497 902.178894,483.011230 918.427734,470.164062 
	C929.666687,461.277893 938.382385,450.450531 944.524109,437.735809 
	C949.952698,426.497528 953.450684,414.532257 954.036011,401.876038 
	C954.260498,397.020966 954.899963,392.185120 955.469666,386.056702 
	C947.988098,391.225250 941.786194,395.760040 935.337769,399.911987 
	C922.214233,408.361908 907.671631,413.439362 892.579224,416.939331 
	C877.991821,420.322205 863.162476,421.735809 848.188904,420.974304 
	C832.123840,420.157288 816.477905,417.451813 801.477966,411.198120 
	C780.198181,402.326294 762.051880,389.100067 746.729553,372.099548 
	C733.342773,357.246490 723.089722,340.343781 716.651123,321.297180 
	C709.848389,301.173187 707.445190,280.342712 709.168335,259.336761 
	C711.557129,230.214462 721.860718,203.933136 739.784058,180.556290 
	C754.789001,160.985703 773.562012,146.459290 795.702393,136.085175 
	C807.835571,130.400055 820.604370,126.511063 833.946411,125.075706 
	C843.902039,124.004669 853.956482,122.903175 863.931091,123.167793 
	C881.483093,123.633438 898.503479,127.226318 914.900757,133.895401 
	C929.612305,139.878891 942.166870,148.866028 954.492371,158.711319 
	C972.826294,173.356033 986.039551,191.571152 995.301453,212.792389 
	C1001.460876,226.905151 1005.842468,241.621643 1005.974792,257.218536 
	C1006.378418,304.795685 1007.190063,352.378479 1006.761475,399.949341 
	C1006.571655,421.022644 1001.593079,441.644745 991.721802,460.486206 
	C979.826843,483.190552 963.451416,502.139832 942.524109,517.320984 
	C926.889709,528.662476 909.571350,535.839233 891.231262,540.839478 
	C885.174927,542.490784 878.664673,542.476990 872.180969,543.612305 
	C862.979126,544.000000 853.958191,544.000000 844.468628,544.000000 
M763.994751,290.521088 
	C764.510742,293.042816 764.797546,295.638062 765.578979,298.074707 
	C771.873230,317.701447 782.288940,334.540527 798.793640,347.335876 
	C814.092468,359.196411 831.462280,365.991638 850.561157,367.863800 
	C862.997192,369.082916 875.362000,367.435577 887.268860,363.287811 
	C917.651306,352.704071 938.469543,332.444031 949.014404,301.935822 
	C954.510803,286.033447 955.433289,269.864960 952.090576,253.279037 
	C948.558472,235.753265 940.515808,220.663651 928.838623,207.415405 
	C919.827271,197.191788 908.718079,189.696884 896.354919,184.081009 
	C878.933411,176.167465 860.585754,174.060516 841.907166,177.194351 
	C826.711609,179.743835 812.777832,186.147461 800.389832,195.346161 
	C789.174011,203.674438 780.511047,214.233780 773.746094,226.605530 
	C767.440796,238.136490 763.538574,250.386993 762.315918,263.182068 
	C761.485596,271.870636 763.307800,280.812683 763.994751,290.521088 
z"/>
<path fill="#373435" opacity="1.000000" stroke="none" 
	d="
M184.550018,1.000000 
	C187.894440,2.055691 190.806183,3.066494 193.680099,4.175383 
	C202.771225,7.683152 205.445190,16.359703 208.876587,24.034159 
	C215.936417,39.823750 222.312286,55.918705 228.999557,71.875450 
	C235.306366,86.924416 241.669434,101.949799 247.974976,116.999298 
	C254.668991,132.975937 261.340881,148.961868 267.992126,164.956345 
	C275.016998,181.849274 281.969666,198.772278 289.022217,215.653595 
	C294.777222,229.429077 300.646820,243.156647 306.440247,256.916138 
	C312.975616,272.437775 319.470306,287.976532 326.005402,303.498260 
	C332.597137,319.154449 339.446350,334.707123 345.751129,350.477722 
	C350.740509,362.958099 355.414642,375.589935 359.562561,388.370728 
	C361.689911,394.925537 359.333282,401.599579 355.446625,406.877960 
	C342.556091,424.384399 317.599854,422.807770 307.389832,405.630554 
	C302.836121,397.969452 300.362091,389.063568 297.021484,380.691772 
	C289.965820,363.009766 282.992462,345.294922 275.927734,327.616547 
	C266.311371,303.553223 256.654907,279.505859 246.989563,255.462173 
	C239.610474,237.105774 232.163803,218.776535 224.796417,200.415466 
	C215.834686,178.080963 206.963135,155.710205 197.977753,133.385254 
	C192.595657,120.013008 187.070496,106.698341 181.250641,92.480743 
	C178.434006,99.147995 175.787018,105.217575 173.295319,111.350243 
	C166.955856,126.953072 160.678940,142.581345 154.389755,158.204559 
	C145.899277,179.296112 137.519653,200.432953 128.909134,221.475327 
	C120.408630,242.248825 111.579689,262.887939 103.081932,283.662537 
	C95.926743,301.154907 89.160545,318.806458 82.000839,336.296936 
	C74.824066,353.829102 67.393677,371.257751 60.030201,388.713074 
	C57.791374,394.020233 55.657349,399.394348 53.036346,404.513031 
	C47.114532,416.077972 37.640816,420.570587 24.074547,418.773499 
	C14.707360,417.532593 4.451161,411.159119 1.351093,399.127197 
	C1.000000,394.310760 1.000000,389.621490 1.360688,384.338562 
	C5.590726,373.911346 9.326750,364.022736 13.361286,354.257416 
	C19.124165,340.308746 25.150331,326.469147 30.982191,312.548645 
	C38.025295,295.736969 44.932240,278.868256 51.992119,262.063690 
	C58.585144,246.370392 65.343025,230.746399 71.951462,215.059509 
	C78.603966,199.268005 85.164551,183.437744 91.760284,167.622330 
	C98.176575,152.237167 104.591934,136.851608 110.997482,121.461952 
	C118.003197,104.630402 124.987122,87.789772 131.999191,70.960861 
	C138.659515,54.976162 145.296936,38.981647 152.036499,23.030350 
	C155.694916,14.371556 160.435669,6.577641 169.861649,3.031655 
	C171.877274,2.273395 173.952332,1.673080 176.000000,0.999999 
	C178.700012,1.000000 181.400024,1.000000 184.550018,1.000000 
z"/>
<path fill="#373435" opacity="1.000000" stroke="none" 
	d="
M1471.000000,332.583344 
	C1470.666626,334.321594 1470.039185,335.644135 1470.043457,336.964661 
	C1470.122925,361.490875 1459.198853,380.391022 1440.796631,395.845856 
	C1429.589111,405.258301 1416.735718,411.400482 1402.990723,415.374146 
	C1393.879639,418.008118 1384.202393,419.042786 1374.698364,419.864105 
	C1364.008911,420.787842 1353.200195,421.329559 1342.494995,420.859619 
	C1321.547607,419.940094 1301.160278,415.835510 1281.517212,408.193329 
	C1267.777832,402.847961 1254.906494,395.882935 1243.506104,386.692596 
	C1237.977417,382.235718 1231.409058,377.720123 1230.024048,369.784882 
	C1227.457031,355.077759 1235.559692,342.034027 1250.169067,337.034302 
	C1260.907837,333.359192 1270.911865,335.383209 1278.632690,343.356842 
	C1294.169678,359.402893 1313.879028,366.845551 1334.901123,370.631958 
	C1348.536377,373.087891 1362.592896,373.045319 1376.609009,370.305695 
	C1385.770752,368.514923 1394.310791,366.024353 1402.068726,360.928192 
	C1410.614258,355.314697 1416.241821,347.587311 1416.887939,337.269287 
	C1417.591309,326.037445 1411.795044,317.575836 1403.178467,311.118805 
	C1390.053223,301.283325 1374.599731,296.880188 1358.971802,292.997681 
	C1340.382446,288.379456 1321.647705,284.252350 1303.271851,278.896606 
	C1284.926270,273.549622 1269.335327,263.031921 1257.130005,248.390961 
	C1249.155518,238.825165 1244.497803,227.413681 1242.832642,214.700592 
	C1241.490967,204.456741 1242.203491,194.670853 1244.930420,184.819305 
	C1247.644897,175.012405 1252.179443,166.187653 1258.921143,158.645493 
	C1273.814697,141.983337 1292.809814,132.706085 1314.597168,129.058899 
	C1325.191895,127.285324 1335.901367,126.105461 1346.597412,125.045853 
	C1366.579834,123.066292 1386.129150,125.800880 1405.080933,132.059967 
	C1420.975220,137.309311 1435.871338,144.602310 1448.090088,156.542145 
	C1454.055054,162.370880 1460.217896,167.784195 1463.580566,175.868317 
	C1467.477539,185.236938 1462.164795,196.298218 1455.019653,201.018585 
	C1445.779907,207.122726 1436.075928,205.998367 1426.908936,201.778702 
	C1420.541992,198.847900 1414.984985,194.116196 1409.164185,190.048965 
	C1397.839355,182.135941 1385.751587,176.291580 1371.935669,173.877777 
	C1351.171997,170.250137 1331.017578,171.694412 1311.695435,180.175751 
	C1302.352661,184.276672 1296.320679,191.923767 1295.220215,202.174042 
	C1294.546753,208.448380 1296.418457,214.697968 1300.448608,219.978851 
	C1308.989136,231.169693 1321.392578,235.568756 1334.245483,238.953690 
	C1358.815308,245.424408 1384.079834,249.110291 1408.085693,257.895599 
	C1425.598511,264.304688 1441.795288,272.697723 1454.265747,286.870544 
	C1464.449707,298.444763 1469.580811,312.236969 1470.609985,327.832886 
	C1471.000000,329.388885 1471.000000,330.777802 1471.000000,332.583344 
z"/>
<path fill="#FFFFFF" opacity="1.000000" stroke="none" 
	d="
M175.531342,0.999999 
	C173.952332,1.673080 171.877274,2.273395 169.861649,3.031655 
	C160.435669,6.577641 155.694916,14.371556 152.036499,23.030350 
	C145.296936,38.981647 138.659515,54.976162 131.999191,70.960861 
	C124.987122,87.789772 118.003197,104.630402 110.997482,121.461952 
	C104.591934,136.851608 98.176575,152.237167 91.760284,167.622330 
	C85.164551,183.437744 78.603966,199.268005 71.951462,215.059509 
	C65.343025,230.746399 58.585144,246.370392 51.992119,262.063690 
	C44.932240,278.868256 38.025295,295.736969 30.982191,312.548645 
	C25.150331,326.469147 19.124165,340.308746 13.361286,354.257416 
	C9.326750,364.022736 5.590726,373.911346 1.360688,383.872437 
	C1.000000,256.433502 1.000000,128.866974 1.000000,1.000000 
	C59.020550,1.000000 117.041618,1.000000 175.531342,0.999999 
z"/>
<path fill="#373435" opacity="1.000000" stroke="none" 
	d="
M502.079407,126.997498 
	C506.341187,126.341660 510.159149,125.145668 513.976929,125.146286 
	C525.230469,125.148087 536.482666,125.704391 547.737915,125.891609 
	C559.065735,126.080048 569.734924,129.119797 580.372375,132.679565 
	C594.876465,137.533279 607.746399,145.201736 619.873108,154.345474 
	C635.732788,166.304001 648.941772,180.743149 659.065308,197.741745 
	C668.094299,212.902527 674.669250,229.164352 677.004211,246.870422 
	C678.000610,254.426208 679.798035,261.976990 679.836975,269.537231 
	C679.915527,284.782745 672.081604,298.570984 653.209412,298.827240 
	C612.055603,299.385925 570.884521,299.348846 529.729614,298.832855 
	C512.628113,298.618500 501.593658,284.302612 505.568237,267.038025 
	C508.793457,253.028152 517.361084,246.999969 532.021912,247.000107 
	C560.351624,247.000366 588.681274,247.000183 617.010986,247.000183 
	C618.750977,247.000183 620.490906,247.000183 622.676880,247.000183 
	C620.736328,236.146942 616.254883,227.026886 610.324829,219.322769 
	C603.448608,210.389465 594.809631,202.719177 586.412659,195.075363 
	C577.013733,186.519531 565.191162,182.238373 553.141479,179.154007 
	C530.097290,173.255356 507.634491,175.866043 486.400696,186.358643 
	C468.756195,195.077637 455.275970,208.742065 446.192169,226.048843 
	C439.682068,238.452225 435.556366,251.770325 434.804413,266.198273 
	C433.918518,283.195374 436.354584,299.408539 443.501678,314.669678 
	C446.669708,321.434296 451.456085,327.552338 456.125000,333.477631 
	C463.844025,343.273865 473.460907,351.006348 484.456635,356.914032 
	C493.402313,361.720337 502.659088,365.793335 512.889526,366.979431 
	C519.524231,367.748657 526.185547,368.943695 532.825867,368.887482 
	C554.212585,368.706360 573.445496,361.756531 590.024414,348.318817 
	C601.040833,339.389679 615.424561,340.412140 624.795837,348.186951 
	C638.385376,359.461395 636.656372,379.210449 623.089355,389.248291 
	C614.332520,395.727234 604.998779,401.499756 595.566589,406.973694 
	C584.326721,413.496735 571.777344,416.777527 559.092957,418.841492 
	C548.469421,420.570099 537.589722,422.038086 526.886414,421.689240 
	C504.601379,420.962921 482.922485,416.660767 462.961334,405.988525 
	C444.844940,396.302643 429.406921,383.415253 416.088593,367.737885 
	C403.661987,353.110260 393.933868,337.040894 389.028625,318.501953 
	C386.194763,307.791748 384.685272,296.698364 383.104462,285.702026 
	C382.195038,279.376038 381.725342,272.862366 382.114624,266.497833 
	C383.215881,248.492920 386.674133,231.012543 393.858246,214.249863 
	C402.196991,194.793045 414.371552,178.177673 429.702728,163.887589 
	C447.105621,147.666504 467.380157,136.142776 490.207336,129.294373 
	C493.912292,128.182831 497.820984,127.750450 502.079407,126.997498 
z"/>
<path fill="#373435" opacity="1.000000" stroke="none" 
	d="
M1101.292114,412.836517 
	C1095.311890,406.541351 1092.783569,399.542206 1092.881714,391.036835 
	C1093.198853,363.546265 1093.110352,336.049164 1092.976196,308.555603 
	C1092.725342,257.141724 1092.305908,205.728668 1092.021973,154.314911 
	C1091.965820,144.131287 1095.205322,135.347397 1104.447144,129.979950 
	C1115.043579,123.825783 1126.084229,124.075745 1136.358765,130.291901 
	C1144.432007,135.176315 1147.946899,143.437317 1147.955811,152.773224 
	C1148.033447,233.589554 1148.041504,314.406036 1147.950928,395.222321 
	C1147.938843,405.925232 1138.152710,416.021606 1127.935791,418.164368 
	C1118.179199,420.210632 1109.690063,418.304474 1101.292114,412.836517 
z"/>
<path fill="#373435" opacity="1.000000" stroke="none" 
	d="
M1095.256592,68.754623 
	C1081.325317,57.037262 1082.077881,31.780626 1093.592651,19.743080 
	C1108.361450,4.303849 1130.383911,5.850972 1142.660767,16.145033 
	C1160.745239,31.308943 1158.057495,56.395966 1145.498413,68.727226 
	C1131.017700,82.945282 1109.041748,82.759964 1095.256592,68.754623 
z"/>
<path fill="#FFFFFF" opacity="1.000000" stroke="none" 
	d="
M763.969238,290.081238 
	C763.307800,280.812683 761.485596,271.870636 762.315918,263.182068 
	C763.538574,250.386993 767.440796,238.136490 773.746094,226.605530 
	C780.511047,214.233780 789.174011,203.674438 800.389832,195.346161 
	C812.777832,186.147461 826.711609,179.743835 841.907166,177.194351 
	C860.585754,174.060516 878.933411,176.167465 896.354919,184.081009 
	C908.718079,189.696884 919.827271,197.191788 928.838623,207.415405 
	C940.515808,220.663651 948.558472,235.753265 952.090576,253.279037 
	C955.433289,269.864960 954.510803,286.033447 949.014404,301.935822 
	C938.469543,332.444031 917.651306,352.704071 887.268860,363.287811 
	C875.362000,367.435577 862.997192,369.082916 850.561157,367.863800 
	C831.462280,365.991638 814.092468,359.196411 798.793640,347.335876 
	C782.288940,334.540527 771.873230,317.701447 765.578979,298.074707 
	C764.797546,295.638062 764.510742,293.042816 763.969238,290.081238 
z"/>
</svg>